<svg id="Layer_1" enable-background="new 0 0 511.996 511.996" height="512" viewBox="0 0 511.996 511.996" width="512" xmlns="http://www.w3.org/2000/svg"><g><g><path d="m465.998 196.111h-90v-53.861c1.576-.473 3.104-1.133 4.55-1.97 9.995-5.789 13.417-18.631 7.612-28.652l-58.956-101.068c-1.83-3.21-4.489-5.886-7.696-7.743-9.995-5.788-22.835-2.366-28.608 7.601l-58.487 100.265c-2.235 3.415-3.414 7.372-3.414 11.471 0 9.49 6.336 17.529 15 20.107v34.105c0 5.522 4.477 10 10 10s10-4.478 10-10v-43.239c0-5.522-4.477-10-10-10h-4.027c-.536 0-.973-.437-.973-.974 0-.202.053-.379.162-.538.133-.195.259-.395.377-.598l58.652-100.548c.262-.453.841-.607 1.294-.346.153.089.263.198.346.344.023.04.046.081.069.121l58.97 101.09c.262.452.106 1.033-.344 1.294-.24.139-.405.154-.475.154h-4.051c-5.523 0-10 4.478-10 10v72.984 285.885h-90v-182.384-43.245c0-5.522-4.477-10-10-10s-10 4.478-10 10v33.245h-90c-11.028 0-20 8.973-20 20.001v58h-90c-11.028 0-20 8.972-20 19.999v104.385c0 5.522 4.477 10 10 10h440c5.523 0 10-4.478 10-10v-285.885c-.001-11.028-8.973-20-20.001-20zm-420 295.885v-94.384h90v94.384zm110 0v-104.384-68.001h90v172.385zm310 0h-90v-275.885h90z"/><path d="m255.998 231.369c5.523 0 10-4.478 10-10v-.007c0-5.522-4.477-9.996-10-9.996s-10 4.48-10 10.003 4.477 10 10 10z"/></g></g></svg>