<?xml version="1.0" encoding="iso-8859-1"?>
<!-- Generator: Adobe Illustrator 19.0.0, SVG Export Plug-In . SVG Version: 6.00 Build 0)  -->
<svg version="1.1" id="Capa_1" xmlns="http://www.w3.org/2000/svg" xmlns:xlink="http://www.w3.org/1999/xlink" x="0px" y="0px"
	 viewBox="0 0 480 480" style="enable-background:new 0 0 480 480;" xml:space="preserve">
<g>
	<g>
		<g>
			<path d="M432,280h-56V8c0-4.418-3.582-8-8-8H112c-4.418,0-8,3.582-8,8v272H48c-2.181,0-4.268,0.89-5.777,2.465
				c-3.057,3.19-2.949,8.254,0.241,11.311l192,184c1.49,1.427,3.473,2.224,5.536,2.224c2.063,0,4.047-0.797,5.536-2.224l192-184
				c1.575-1.509,2.465-3.596,2.465-5.777C440,283.581,436.418,280,432,280z M240,460.92L67.904,296H112c4.418,0,8-3.582,8-8V16h240
				v272c0,4.418,3.582,8,8,8h44.096L240,460.92z"/>
			<path d="M240,120c17.673,0,32,14.327,32,32h16c-0.043-23.397-16.934-43.361-40-47.28V88h-16v16.72
				c-26.112,4.572-43.575,29.446-39.003,55.559C197,183.142,216.789,199.866,240,200c17.673,0,32,14.327,32,32s-14.327,32-32,32
				c-17.673,0-32-14.327-32-32h-16c0.043,23.397,16.934,43.361,40,47.28V296h16v-16.72c26.112-4.572,43.575-29.446,39.003-55.559
				C283,200.858,263.211,184.134,240,184c-17.673,0-32-14.327-32-32S222.327,120,240,120z"/>
			<rect x="136" y="32" width="16" height="16"/>
			<rect x="168" y="32" width="16" height="16"/>
			<rect x="200" y="32" width="16" height="16"/>
			<rect x="232" y="32" width="16" height="16"/>
			<rect x="264" y="32" width="16" height="16"/>
			<rect x="296" y="32" width="16" height="16"/>
			<rect x="328" y="32" width="16" height="16"/>
		</g>
	</g>
</g>
<g>
</g>
<g>
</g>
<g>
</g>
<g>
</g>
<g>
</g>
<g>
</g>
<g>
</g>
<g>
</g>
<g>
</g>
<g>
</g>
<g>
</g>
<g>
</g>
<g>
</g>
<g>
</g>
<g>
</g>
</svg>
