<?xml version="1.0"?>
<svg xmlns="http://www.w3.org/2000/svg" id="Outline" viewBox="0 0 512 512" width="512" height="512"><path d="M160,395.963V488a8,8,0,0,0,8,8H440a8,8,0,0,0,8-8V296a40.132,40.132,0,0,0-4.706-18.823L384,166V24a8,8,0,0,0-8-8H168a8,8,0,0,0-8,8V52.072L69.61,80.365A8,8,0,0,0,64.365,90.39ZM149.805,122.331l-4.781-15.276L160,102.367V235.245l-30.706-98.11,15.267-4.78A8,8,0,0,0,149.805,122.331ZM432,296V480H384a72.085,72.085,0,0,1-71.984-70.485,8,8,0,0,0-1.227-5.994L258.9,326.716a24,24,0,1,1,39.771-26.872c.047.069.1.138.145.206l46.705,64.636A8,8,0,0,0,352,368h24a8,8,0,0,0,8-8V200l45.177,84.706A24.1,24.1,0,0,1,432,296ZM224,424H208V88h16a8,8,0,0,0,8-8V64h80V80a8,8,0,0,0,8,8h16V324.2l-24.15-33.423a40.352,40.352,0,0,0-3.078-3.948,47.99,47.99,0,1,0-65.36,7.729,40.118,40.118,0,0,0,2.225,41.117l50.391,74.58A87.4,87.4,0,0,0,305.639,448H232V432A8,8,0,0,0,224,424Zm32.387-143.864c-.956.646-1.872,1.335-2.76,2.051a32,32,0,1,1,42.347-5A40.013,40.013,0,0,0,256.387,280.136ZM176,32H368V352H356.089L352,346.341V80a8,8,0,0,0-8-8H328V56a8,8,0,0,0-8-8H224a8,8,0,0,0-8,8V72H200a8,8,0,0,0-8,8V432a8,8,0,0,0,8,8h16v16a8,8,0,0,0,8,8h92.189a88.722,88.722,0,0,0,17.305,16H176ZM160,68.837V85.6l-27.39,8.574a8,8,0,0,0-5.245,10.024l4.781,15.277-15.267,4.779a8,8,0,0,0-5.244,10.025L160,288.812v53.582L82.024,93.245Z"/></svg>
