<svg height="512pt" viewBox="-10 0 512 512" width="512pt" xmlns="http://www.w3.org/2000/svg"><path d="m409.5 208.535156c0 110.988282-89.972656 200.964844-200.964844 200.964844-110.988281 0-200.960937-89.976562-200.960937-200.964844 0-110.988281 89.972656-200.960937 200.960937-200.960937 110.992188 0 200.964844 89.972656 200.964844 200.960937zm0 0" fill="#ffcd50"/><path d="m341.320312 57.703125c31.199219 35.410156 50.132813 81.882813 50.132813 132.785156 0 110.988281-89.976563 200.964844-200.964844 200.964844-50.902343 0-97.375-18.933594-132.785156-50.132813 36.828125 41.800782 90.746094 68.179688 150.832031 68.179688 110.988282 0 200.964844-89.972656 200.964844-200.964844 0-60.085937-26.378906-114.003906-68.179688-150.832031zm0 0" fill="#ffbc27"/><path d="m364.625 208.535156c0 86.207032-69.882812 156.085938-156.089844 156.085938-86.203125 0-156.085937-69.878906-156.085937-156.085938 0-86.203125 69.882812-156.085937 156.085937-156.085937 86.207032 0 156.089844 69.882812 156.089844 156.085937zm0 0" fill="#ffda88"/><path d="m308.980469 89.070312c22.847656 27.148438 36.621093 62.183594 36.621093 100.441407 0 86.207031-69.882812 156.089843-156.085937 156.089843-38.261719 0-73.296875-13.773437-100.445313-36.621093 28.632813 34.019531 71.523438 55.640625 119.464844 55.640625 86.207032 0 156.089844-69.882813 156.089844-156.085938 0-47.945312-21.625-90.832031-55.644531-119.464844zm0 0" fill="#ffcd69"/><path d="m484.230469 386.273438c0 65.253906-52.898438 118.152343-118.15625 118.152343-65.253907 0-118.152344-52.898437-118.152344-118.152343 0-65.257813 52.898437-118.15625 118.152344-118.15625 65.257812 0 118.15625 52.898437 118.15625 118.15625zm0 0" fill="#bce8f1"/><path d="m437.769531 292.359375c15.203125 19.882813 24.242188 44.734375 24.242188 71.695313 0 65.257812-52.898438 118.15625-118.152344 118.15625-26.964844 0-51.8125-9.039063-71.695313-24.242188 21.589844 28.238281 55.621094 46.457031 93.910157 46.457031 65.253906 0 118.15625-52.898437 118.15625-118.152343 0-38.292969-18.222657-72.324219-46.460938-93.914063zm0 0" fill="#93dcfc"/><path d="m430.707031 366.074219h-44.433593v-44.433594h-40.394532v44.433594h-44.433594v40.394531h44.433594v44.433594h40.394532v-44.433594h44.433593zm0 0" fill="#6dc54a"/><path d="m226.117188 271.277344h-35.160157c-15.210937 0-27.582031-12.375-27.582031-27.582032 0-4.183593-3.390625-7.574218-7.574219-7.574218-4.183593 0-7.574219 3.390625-7.574219 7.574218 0 23.5625 19.167969 42.730469 42.730469 42.730469h10.007813v17.039063c0 4.179687 3.390625 7.570312 7.570312 7.570312 4.183594 0 7.574219-3.390625 7.574219-7.570312v-17.039063h10.007813c23.5625 0 42.730468-19.167969 42.730468-42.730469s-19.167968-42.734374-42.730468-42.734374h-35.160157c-15.210937 0-27.582031-12.371094-27.582031-27.582032 0-15.210937 12.371094-27.585937 27.582031-27.585937h35.160157c15.210937 0 27.582031 12.375 27.582031 27.585937 0 4.183594 3.394531 7.574219 7.574219 7.574219 4.183593 0 7.574218-3.390625 7.574218-7.574219 0-23.5625-19.167968-42.734375-42.730468-42.734375h-10.007813v-17.035156c0-4.183594-3.390625-7.574219-7.574219-7.574219-4.179687 0-7.570312 3.390625-7.570312 7.574219v17.035156h-10.007813c-23.5625 0-42.730469 19.171875-42.730469 42.734375s19.167969 42.730469 42.730469 42.730469h35.160157c15.210937 0 27.582031 12.375 27.582031 27.585937 0 15.207032-12.371094 27.582032-27.582031 27.582032zm0 0"/><path d="m393.847656 358.5v-36.859375c0-4.183594-3.390625-7.574219-7.574218-7.574219h-40.394532c-4.183594 0-7.574218 3.390625-7.574218 7.574219v36.859375h-36.859376c-4.183593 0-7.574218 3.390625-7.574218 7.574219v40.394531c0 4.183594 3.390625 7.574219 7.574218 7.574219h36.859376v36.859375c0 4.183594 3.390624 7.574218 7.574218 7.574218h40.394532c4.183593 0 7.574218-3.390624 7.574218-7.574218v-36.859375h36.859375c4.183594 0 7.574219-3.390625 7.574219-7.574219v-40.394531c0-4.183594-3.390625-7.574219-7.574219-7.574219zm29.285156 40.394531h-36.859374c-4.183594 0-7.574219 3.390625-7.574219 7.574219v36.859375h-25.246094v-36.859375c0-4.183594-3.390625-7.574219-7.574219-7.574219h-36.859375v-25.246093h36.859375c4.183594 0 7.574219-3.390626 7.574219-7.574219v-36.859375h25.246094v36.859375c0 4.183593 3.390625 7.574219 7.574219 7.574219h36.859374zm0 0"/><path d="m457.621094 300.097656c-2.867188-3.046875-7.660156-3.1875-10.707032-.324218-3.042968 2.871093-3.1875 7.664062-.320312 10.707031 19.386719 20.585937 30.0625 47.5 30.0625 75.792969 0 60.972656-49.605469 110.578124-110.582031 110.578124-54.53125 0-100.429688-39-109.140625-92.742187-.953125-5.847656-1.4375-11.851563-1.4375-17.835937 0-8.714844 1.019531-17.386719 3.035156-25.785157 10.738281-45.035156 48.851562-78.820312 94.851562-84.070312 4.175782-.480469 8.445313-.726563 12.691407-.726563 10.480469 0 20.851562 1.464844 30.824219 4.359375 8.824218 2.554688 17.324218 6.222657 25.257812 10.902344 3.605469 2.125 8.25.925781 10.371094-2.679687 2.125-3.601563.925781-8.246094-2.675782-10.371094-6.796874-4.003906-13.953124-7.359375-21.359374-10.015625 5.691406-19.1875 8.578124-39.113281 8.578124-59.351563.003907-114.984375-93.546874-208.535156-208.535156-208.535156-53.070312 0-103.640625 19.953125-142.390625 56.183594-3.054687 2.855468-3.214843 7.648437-.359375 10.703125 2.859375 3.058593 7.652344 3.214843 10.707032.359375 8.976562-8.390625 18.640624-15.84375 28.851562-22.300782l14.894531 25.804688c-19.839843 12.738281-36.753906 29.648438-49.488281 49.488281l-25.804688-14.898437c2.816407-4.449219 5.828126-8.804688 9.03125-13.054688 2.515626-3.339844 1.847657-8.089844-1.492187-10.605468-3.339844-2.519532-8.089844-1.851563-10.605469 1.492187-27.398437 36.363281-41.878906 79.714844-41.878906 125.363281 0 114.988282 93.550781 208.535156 208.535156 208.535156 11.734375 0 23.445313-.996093 34.925782-2.929687 5.933593 26.15625 20.210937 49.921875 40.746093 67.554687 22.753907 19.542969 51.828125 30.304688 81.867188 30.304688 69.328125 0 125.730469-56.402344 125.730469-125.726562 0-32.167969-12.140626-62.773438-34.183594-86.175782zm-324.269532 53.808594c20.890626 10.820312 43.992188 17 67.613282 18.089844v29.765625c-29.679688-1.148438-57.660156-9.015625-82.46875-22.121094zm82.757813 18.09375c8.582031-.390625 17.09375-1.4375 25.453125-3.148438-.800781 5.753907-1.214844 11.578126-1.214844 17.421876 0 4.316406.246094 8.632812.683594 12.917968-8.203125 1.386719-16.542969 2.246094-24.921875 2.570313zm185.65625-171.035156h-29.765625c-1.09375-23.621094-7.273438-46.722656-18.089844-67.613282l25.730469-14.855468c13.105469 24.808594 20.972656 52.789062 22.125 82.46875zm-38.019531 59.613281c4.816406-14.328125 7.582031-29.21875 8.273437-44.46875h29.757813c-.625 16.203125-3.25 32.140625-7.832032 47.558594-9.109374-2.0625-18.453124-3.121094-27.871093-3.121094-.773438-.003906-1.550781.015625-2.328125.03125zm8.300781-155.191406-25.722656 14.851562c-12.738281-19.839843-29.648438-36.75-49.488281-49.488281l14.851562-25.722656c24.308594 15.390625 44.96875 36.046875 60.359375 60.359375zm-155.9375-90.078125c29.679687 1.152344 57.660156 9.015625 82.46875 22.125l-14.855469 25.730468c-20.890625-10.816406-43.992187-17-67.613281-18.089843zm-15.144531 0v29.765625c-23.621094 1.09375-46.722656 7.273437-67.613282 18.089843l-14.890624-25.792968c25.316406-13.347656 53.421874-20.9375 82.503906-22.0625zm-66.683594 64.589844c22.457031-13 48.132812-19.871094 74.253906-19.871094 26.125 0 51.804688 6.871094 74.261719 19.875 22.535156 13.035156 41.339844 31.835937 54.375 54.375 13.003906 22.457031 19.875 48.136718 19.875 74.257812 0 18.484375-3.335937 36.441406-9.914063 53.441406-48.765624 7.378907-89.003906 43.042969-102.1875 90.570313-11.839843 2.976563-24.066406 4.5-36.410156 4.5-26.121094 0-51.800781-6.875-74.257812-19.875-22.535156-13.039063-41.339844-31.839844-54.375-54.378906-13.003906-22.457031-19.875-48.136719-19.875-74.257813s6.871094-51.796875 19.875-74.257812c13.035156-22.535156 31.839844-41.339844 54.378906-54.378906zm-118.96875 136.210937h29.761719c1.09375 23.617187 7.273437 46.722656 18.089843 67.609375l-25.730468 14.859375c-13.109375-24.808594-20.972656-52.789063-22.121094-82.46875zm47.851562-82.757813c-10.816406 20.890626-16.996093 43.992188-18.089843 67.609376h-29.777344c1.105469-29.136719 8.617187-57.125 22.046875-82.519532zm-18.136718 178.332032 25.722656-14.851563c12.738281 19.84375 29.648438 36.753907 49.488281 49.492188l-14.851562 25.722656c-24.3125-15.390625-44.96875-36.050781-60.359375-60.363281zm0 0"/></svg>