<svg id="Capa_1" enable-background="new 0 0 512 512" height="512" viewBox="0 0 512 512" width="512" xmlns="http://www.w3.org/2000/svg"><g><g><circle cx="256.001" cy="256.001" fill="#ffd064" r="87.201"/><path d="m256.001 350.928c-52.343 0-94.928-42.585-94.928-94.928s42.585-94.927 94.928-94.927 94.928 42.584 94.928 94.927-42.585 94.928-94.928 94.928zm0-174.402c-43.823 0-79.475 35.652-79.475 79.474s35.652 79.475 79.475 79.475 79.475-35.652 79.475-79.475-35.652-79.474-79.475-79.474z" fill="#ffc250"/><g fill="#e49542"><path d="m253.58 311.654c-12.831 0-20.231-.943-32.948-7.793-3.757-2.024-5.161-6.71-3.137-10.466 2.023-3.757 6.707-5.163 10.467-3.137 10.32 5.56 15.111 6.013 27.254 5.939 14.612-.08 23.452-8.671 24.633-17.115 1.039-7.435-4.023-13.347-13.888-16.219-17.786-5.178-27.993-9.198-35.233-13.875-8.008-5.172-11.976-14.422-10.356-24.139 1.912-11.474 11.085-20.856 23.366-23.903 23.76-5.895 39.58 5.847 40.242 6.349 3.398 2.581 4.06 7.428 1.48 10.826-2.567 3.38-7.378 4.055-10.774 1.519-.559-.404-11.004-7.723-27.228-3.696-7.642 1.896-11.129 7.155-11.844 11.446-.288 1.726-.523 6.021 3.498 8.618 7.312 4.723 19.859 8.726 31.169 12.018 17.227 5.015 26.99 18.045 24.872 33.196-2.101 15.024-16.464 30.3-39.852 30.428-.585.002-1.158.004-1.721.004z"/><path d="m255.26 325.75c-4.268 0-7.726-3.459-7.726-7.726v-14.101c0-4.267 3.459-7.726 7.726-7.726 4.268 0 7.726 3.459 7.726 7.726v14.101c0 4.266-3.459 7.726-7.726 7.726z"/><path d="m255.26 214.793c-4.268 0-7.726-3.459-7.726-7.726v-13.089c0-4.267 3.459-7.726 7.726-7.726 4.268 0 7.726 3.459 7.726 7.726v13.089c0 4.267-3.459 7.726-7.726 7.726z"/></g></g><g><g><path d="m365.724 394.747-106.276.169c-12.585-.226-23.357 8.978-25.099 21.444-1.677 12.002 5.534 23.467 17.078 27.155l110.36-13.501z" fill="#eaac9d"/><path d="m333.948 415.855-106.276.169c-12.585-.226-23.357 8.978-25.099 21.444-1.677 12.002 5.534 23.467 17.078 27.155l110.36-13.501z" fill="#ffcbbe"/><path d="m187.003 475.544c3.011 5.173 7.873 9.252 13.933 11.186l24.155 7.714 49.573 15.838c8.251 2.634 17.163 2.228 25.131-1.146l146.179-61.887 19.239-86.978c19.693-.186 0 .056 0 0l-19.934-46.84-46.311-5.949c-21.589-2.771-43.441-1.622-64.514 3.336-.894.209-1.785.423-2.669.65-6.34 1.596-12.615 3.537-18.779 5.822l-6.106 2.259c-12.614 4.68-19.227 18.542-14.92 31.285.542 1.604 1.236 3.127 2.067 4.554 3.985 6.845 11.071 11.477 19.148 12.245l50.047 4.742-87.79 66.947-66.493-1.19c-12.582-.225-23.354 8.98-25.094 21.445-.798 5.703.412 11.284 3.138 15.967z" fill="#ffddce"/><path d="m225.091 494.444 49.573 15.838c8.251 2.634 17.163 2.228 25.131-1.146l146.179-61.887-.419-80.686c-.626 93.522-193.359 136.542-220.464 127.881z" fill="#ffcbbe"/><path d="m445.52 360.458c-.008 1.332 0 2.679.026 4.056z" fill="#ffcbbe"/><path d="m445.973 447.248 60.303 2.509-.325-63.637-.367-70.179-60.303-2.51.394 76.613z" fill="#db5c6e"/><path d="m445.973 447.248 60.303 2.51-.325-63.637c-30.021 20.78-60.276 3.924-60.276 3.924z" fill="#d64553"/></g><g><path d="m146.276 117.253 106.276-.169c12.585.226 23.357-8.978 25.099-21.444 1.677-12.002-5.534-23.467-17.078-27.155l-110.36 13.501z" fill="#eaac9d"/><path d="m178.052 96.144 106.276-.169c12.585.226 23.357-8.978 25.099-21.444 1.677-12.002-5.534-23.467-17.078-27.155l-110.36 13.501z" fill="#ffcbbe"/><path d="m324.997 36.456c-3.011-5.173-7.873-9.252-13.933-11.186l-24.155-7.714-49.573-15.838c-8.251-2.634-17.163-2.228-25.131 1.146l-146.179 61.887.419 80.686c-.009.589-.003 1.177.007 1.771 0 .096.006.189.002.279l.026 4.056c-.002.065-.004.13-.004.186l.245 46.84 46.311 5.949c21.589 2.771 43.441 1.622 64.514-3.336.894-.209 1.785-.423 2.669-.65 6.34-1.596 12.615-3.537 18.779-5.822l6.106-2.259c12.614-4.68 19.227-18.542 14.92-31.285-.542-1.604-1.236-3.127-2.067-4.554-3.985-6.845-11.071-11.477-19.148-12.245l-50.047-4.742 87.79-66.947 66.493 1.19c12.582.225 23.354-8.98 25.094-21.445.798-5.703-.412-11.284-3.138-15.967z" fill="#ffddce"/><path d="m286.909 17.556-49.573-15.838c-8.251-2.634-17.163-2.228-25.131 1.146l-146.179 61.887.419 80.686c.626-93.522 193.359-136.542 220.464-127.881z" fill="#ffcbbe"/><path d="m66.48 151.542c.008-1.332 0-2.679-.026-4.056z" fill="#ffcbbe"/><path d="m66.027 64.752-60.303-2.509.325 63.637.367 70.179 60.303 2.51-.394-76.613z" fill="#80b4fb"/><path d="m66.027 64.752-60.303-2.51.325 63.637c30.021-20.78 60.276-3.924 60.276-3.924z" fill="#61a2f9"/></g></g></g></svg>