<?xml version="1.0" encoding="iso-8859-1"?>
<!-- Generator: Adobe Illustrator 19.0.0, SVG Export Plug-In . SVG Version: 6.00 Build 0)  -->
<svg version="1.1" id="Capa_1" xmlns="http://www.w3.org/2000/svg" xmlns:xlink="http://www.w3.org/1999/xlink" x="0px" y="0px"
	 viewBox="0 0 512 512" style="enable-background:new 0 0 512 512;" xml:space="preserve">
<polygon style="fill:#38C183;" points="512,118.818 386.179,0.972 260.359,118.818 317.718,118.818 317.718,511.028 454.64,511.028 
	454.64,118.818 "/>
<path style="fill:#F4B74A;" d="M323.408,455.542c-56.985,56.976-141.227,70.074-210.748,39.276
	c-16.373-7.246-31.915-16.926-46.102-29.041c-3.8-3.236-7.485-6.654-11.074-10.235c-73.979-73.988-73.979-193.936,0-267.924
	c73.988-73.979,193.936-73.979,267.924,0c3.589,3.589,6.998,7.275,10.235,11.074c12.115,14.177,21.796,29.729,29.041,46.102
	C393.482,314.305,380.384,398.556,323.408,455.542z"/>
<path style="fill:#F9C662;" d="M362.684,244.794L112.661,494.818c-16.373-7.246-31.915-16.926-46.102-29.041l267.084-267.084
	C345.758,212.869,355.437,228.421,362.684,244.794z"/>
<path style="fill:#FFD488;" d="M341.738,321.58c0,84.108-68.184,152.292-152.292,152.292c-47.476,0-89.874-21.719-117.809-55.773
	c-21.557-26.273-34.484-59.888-34.484-96.519c0-84.108,68.184-152.292,152.292-152.292c36.641,0,70.255,12.945,96.528,34.503
	C320.019,231.715,341.738,274.113,341.738,321.58z"/>
<path style="fill:#F9C662;" d="M285.975,203.791L71.656,418.108l-0.019-0.009c-6.292-7.666-11.848-15.962-16.555-24.774
	c-5.365-10.015-9.633-20.688-12.66-31.887c-3.437-12.707-5.27-26.073-5.27-39.858c0-84.108,68.184-152.292,152.292-152.292
	c13.796,0,27.161,1.833,39.858,5.27c11.199,3.026,21.872,7.303,31.887,12.669C270.002,191.933,278.299,197.499,285.975,203.791z"/>
<path style="fill:#FFD488;" d="M261.191,187.227L55.083,393.325c-5.365-10.015-9.633-20.688-12.66-31.887l186.88-186.88
	C240.502,177.584,251.176,181.861,261.191,187.227z"/>
<g>
	<path style="fill:#E0A33F;" d="M189.446,481.651c-41.01,0-82.02-15.61-113.241-46.831c-62.441-62.441-62.441-164.039,0-226.481
		c62.44-62.44,164.039-62.441,226.481,0s62.441,164.039,0,226.481C271.466,466.041,230.456,481.651,189.446,481.651z
		 M189.445,177.207c-36.988,0-73.976,14.079-102.135,42.238c-56.317,56.317-56.317,147.953,0,204.27
		c56.318,56.318,147.954,56.317,204.27,0c56.317-56.317,56.317-147.953,0-204.27C263.423,191.286,226.435,177.207,189.445,177.207z"
		/>
	<path style="fill:#E0A33F;" d="M189.446,403.156c-28.721,0-52.087-20.059-52.087-44.714c0-4.337,3.516-7.853,7.853-7.853
		c4.337,0,7.853,3.516,7.853,7.853c0,15.995,16.321,29.009,36.382,29.009s36.382-13.013,36.382-29.009s-16.321-29.009-36.382-29.009
		c-28.721,0-52.087-20.059-52.087-44.715c0-24.656,23.366-44.714,52.087-44.714s52.087,20.059,52.087,44.714
		c0,4.337-3.516,7.853-7.853,7.853c-4.337,0-7.853-3.516-7.853-7.853c0-15.995-16.321-29.009-36.382-29.009
		s-36.382,13.013-36.382,29.009c0,15.995,16.321,29.01,36.382,29.01c28.721,0,52.087,20.059,52.087,44.714
		C241.534,383.097,218.167,403.156,189.446,403.156z"/>
	<path style="fill:#E0A33F;" d="M189.446,417.901c-4.337,0-7.853-3.516-7.853-7.853V233.112c0-4.337,3.516-7.853,7.853-7.853
		s7.853,3.516,7.853,7.853v176.937C197.299,414.385,193.783,417.901,189.446,417.901z"/>
</g>
<g>
</g>
<g>
</g>
<g>
</g>
<g>
</g>
<g>
</g>
<g>
</g>
<g>
</g>
<g>
</g>
<g>
</g>
<g>
</g>
<g>
</g>
<g>
</g>
<g>
</g>
<g>
</g>
<g>
</g>
</svg>
